<mxfile modified="2022-02-08T04:42:00.895Z" host="app.diagrams.net" agent="5.0 (Macintosh; Intel Mac OS X 10_15_7) AppleWebKit/537.36 (KHTML, like Gecko) Chrome/97.0.4692.99 Safari/537.36" etag="D0_PAYELZRxKmjhAd_J7" version="15.9.4" type="github">
  <diagram id="f106602c-feb2-e66a-4537-3a34d633f6aa" name="Page-1">
    <mxGraphModel dx="943" dy="469" grid="1" gridSize="10" guides="1" tooltips="1" connect="1" arrows="1" fold="1" page="1" pageScale="1" pageWidth="1169" pageHeight="827" background="none" math="0" shadow="0">
      <root>
        <mxCell id="0" />
        <mxCell id="1" parent="0" />
        <mxCell id="14" value="&lt;b&gt;LMNAs&lt;/b&gt;&amp;nbsp;Unified Marketing Platform" style="fillColor=#F6F6F6;strokeColor=none;shadow=0;gradientColor=none;fontSize=14;align=left;spacing=10;fontColor=#717171;9E9E9E;verticalAlign=top;spacingTop=-4;fontStyle=0;spacingLeft=40;html=1;" parent="1" vertex="1">
          <mxGeometry x="640" y="502" width="420" height="430" as="geometry" />
        </mxCell>
        <mxCell id="15" value="" style="shape=mxgraph.gcp2.google_cloud_platform;fillColor=#F6F6F6;strokeColor=none;shadow=0;gradientColor=none;" parent="14" vertex="1">
          <mxGeometry width="23" height="20" relative="1" as="geometry">
            <mxPoint x="20" y="10" as="offset" />
          </mxGeometry>
        </mxCell>
        <mxCell id="699" value="" style="strokeColor=#dddddd;fillColor=#ffffff;shadow=1;strokeWidth=1;rounded=1;absoluteArcSize=1;arcSize=2;fontSize=10;fontColor=#9E9E9E;align=center;html=1;" parent="14" vertex="1">
          <mxGeometry x="215" y="30" width="150" height="60" as="geometry" />
        </mxCell>
        <mxCell id="700" value="&lt;font color=&quot;#000000&quot;&gt;Relevant Users&lt;/font&gt;&lt;br&gt;Cloud Storage" style="dashed=0;connectable=0;html=1;fillColor=#5184F3;strokeColor=none;shape=mxgraph.gcp2.hexIcon;prIcon=cloud_storage;part=1;labelPosition=right;verticalLabelPosition=middle;align=left;verticalAlign=middle;spacingLeft=5;fontColor=#999999;fontSize=12;" parent="699" vertex="1">
          <mxGeometry y="0.5" width="44" height="39" relative="1" as="geometry">
            <mxPoint x="5" y="-19.5" as="offset" />
          </mxGeometry>
        </mxCell>
        <mxCell id="711" value="Customer Lists Logic" style="rounded=1;absoluteArcSize=1;arcSize=2;html=1;strokeColor=none;gradientColor=none;shadow=0;dashed=0;strokeColor=none;fontSize=12;fontColor=#9E9E9E;align=left;verticalAlign=top;spacing=10;spacingTop=-4;fillColor=#E1F5FE;" parent="1" vertex="1">
          <mxGeometry x="660" y="622" width="360" height="100" as="geometry" />
        </mxCell>
        <mxCell id="712" style="edgeStyle=orthogonalEdgeStyle;rounded=0;html=1;labelBackgroundColor=none;startFill=1;startSize=4;endArrow=blockThin;endFill=1;endSize=4;jettySize=auto;orthogonalLoop=1;strokeColor=#4284F3;strokeWidth=2;fontSize=12;fontColor=#000000;align=center;dashed=0;" parent="1" source="705" target="711" edge="1">
          <mxGeometry relative="1" as="geometry">
            <Array as="points">
              <mxPoint x="610" y="632" />
              <mxPoint x="610" y="672" />
            </Array>
          </mxGeometry>
        </mxCell>
        <mxCell id="705" value="Campaign Manager" style="rounded=1;absoluteArcSize=1;arcSize=2;html=1;strokeColor=none;gradientColor=none;shadow=0;dashed=0;strokeColor=none;fontSize=12;fontColor=#9E9E9E;align=left;verticalAlign=top;spacing=10;spacingTop=-4;fillColor=#FFF8E1;" parent="1" vertex="1">
          <mxGeometry x="440" y="572" width="120" height="100" as="geometry" />
        </mxCell>
        <mxCell id="713" style="edgeStyle=orthogonalEdgeStyle;rounded=0;html=1;labelBackgroundColor=none;startFill=1;startSize=4;endArrow=blockThin;endFill=1;endSize=4;jettySize=auto;orthogonalLoop=1;strokeColor=#4284F3;strokeWidth=2;fontSize=12;fontColor=#000000;align=center;dashed=0;" parent="1" source="706" target="711" edge="1">
          <mxGeometry relative="1" as="geometry" />
        </mxCell>
        <mxCell id="706" value="Analytics" style="rounded=1;absoluteArcSize=1;arcSize=2;html=1;strokeColor=none;gradientColor=none;shadow=0;dashed=0;strokeColor=none;fontSize=12;fontColor=#9E9E9E;align=left;verticalAlign=top;spacing=10;spacingTop=-4;fillColor=#FFF8E1;" parent="1" vertex="1">
          <mxGeometry x="440" y="692" width="120" height="100" as="geometry" />
        </mxCell>
        <mxCell id="714" style="edgeStyle=orthogonalEdgeStyle;rounded=0;html=1;labelBackgroundColor=none;startFill=1;startSize=4;endArrow=blockThin;endFill=1;endSize=4;jettySize=auto;orthogonalLoop=1;strokeColor=#4284F3;strokeWidth=2;fontSize=12;fontColor=#000000;align=center;dashed=0;" parent="1" source="707" target="711" edge="1">
          <mxGeometry relative="1" as="geometry">
            <Array as="points">
              <mxPoint x="750" y="867" />
            </Array>
          </mxGeometry>
        </mxCell>
        <mxCell id="707" value="Marketing List" style="rounded=1;absoluteArcSize=1;arcSize=2;html=1;strokeColor=none;gradientColor=none;shadow=0;dashed=0;strokeColor=none;fontSize=12;fontColor=#9E9E9E;align=left;verticalAlign=top;spacing=10;spacingTop=-4;fillColor=#F1F8E9;" parent="1" vertex="1">
          <mxGeometry x="440" y="812" width="120" height="110" as="geometry" />
        </mxCell>
        <mxCell id="689" value="" style="strokeColor=#dddddd;fillColor=#ffffff;shadow=1;strokeWidth=1;rounded=1;absoluteArcSize=1;arcSize=2;fontSize=10;fontColor=#9E9E9E;align=center;html=1;" parent="1" vertex="1">
          <mxGeometry x="470" y="602" width="60" height="60" as="geometry" />
        </mxCell>
        <mxCell id="690" value="" style="dashed=0;connectable=0;html=1;fillColor=#5184F3;strokeColor=none;shape=mxgraph.gcp2.campaign_manager;part=1;labelPosition=right;verticalLabelPosition=middle;align=left;verticalAlign=middle;spacingLeft=5;fontColor=#999999;fontSize=12;" parent="689" vertex="1">
          <mxGeometry width="45" height="45" relative="1" as="geometry">
            <mxPoint x="5" y="7" as="offset" />
          </mxGeometry>
        </mxCell>
        <mxCell id="693" value="" style="strokeColor=#dddddd;fillColor=#ffffff;shadow=1;strokeWidth=1;rounded=1;absoluteArcSize=1;arcSize=2;fontSize=10;fontColor=#9E9E9E;align=center;html=1;" parent="1" vertex="1">
          <mxGeometry x="470" y="720" width="60" height="60" as="geometry" />
        </mxCell>
        <mxCell id="694" value="" style="dashed=0;connectable=0;html=1;fillColor=#5184F3;strokeColor=none;shape=mxgraph.gcp2.google_analytics;part=1;labelPosition=right;verticalLabelPosition=middle;align=left;verticalAlign=middle;spacingLeft=5;fontColor=#999999;fontSize=12;" parent="693" vertex="1">
          <mxGeometry width="45" height="45" relative="1" as="geometry">
            <mxPoint x="5" y="7" as="offset" />
          </mxGeometry>
        </mxCell>
        <mxCell id="695" value="" style="strokeColor=#dddddd;fillColor=#ffffff;shadow=1;strokeWidth=1;rounded=1;absoluteArcSize=1;arcSize=2;labelPosition=center;verticalLabelPosition=middle;align=center;verticalAlign=bottom;spacingLeft=0;fontColor=#999999;fontSize=12;whiteSpace=wrap;spacingBottom=2;html=1;" parent="1" vertex="1">
          <mxGeometry x="470" y="842" width="60" height="67" as="geometry" />
        </mxCell>
        <mxCell id="696" value="" style="dashed=0;connectable=0;html=1;fillColor=#757575;strokeColor=none;shape=mxgraph.gcp2.list;part=1;" parent="695" vertex="1">
          <mxGeometry x="0.5" width="44.5" height="50" relative="1" as="geometry">
            <mxPoint x="-22.25" y="10" as="offset" />
          </mxGeometry>
        </mxCell>
        <mxCell id="715" style="edgeStyle=orthogonalEdgeStyle;rounded=0;html=1;labelBackgroundColor=none;startFill=1;startSize=4;endArrow=blockThin;endFill=1;endSize=4;jettySize=auto;orthogonalLoop=1;strokeColor=#4284F3;strokeWidth=2;fontSize=12;fontColor=#000000;align=center;dashed=0;" parent="1" source="697" target="703" edge="1">
          <mxGeometry relative="1" as="geometry" />
        </mxCell>
        <mxCell id="697" value="" style="strokeColor=#dddddd;fillColor=#ffffff;shadow=1;strokeWidth=1;rounded=1;absoluteArcSize=1;arcSize=2;fontSize=10;fontColor=#9E9E9E;align=center;html=1;" parent="1" vertex="1">
          <mxGeometry x="670" y="652" width="150" height="60" as="geometry" />
        </mxCell>
        <mxCell id="698" value="&lt;font color=&quot;#000000&quot;&gt;Export Ad Data&lt;/font&gt;&lt;br&gt;Cloud Storage" style="dashed=0;connectable=0;html=1;fillColor=#5184F3;strokeColor=none;shape=mxgraph.gcp2.hexIcon;prIcon=cloud_storage;part=1;labelPosition=right;verticalLabelPosition=middle;align=left;verticalAlign=middle;spacingLeft=5;fontColor=#999999;fontSize=12;" parent="697" vertex="1">
          <mxGeometry y="0.5" width="44" height="39" relative="1" as="geometry">
            <mxPoint x="5" y="-19.5" as="offset" />
          </mxGeometry>
        </mxCell>
        <mxCell id="719" style="edgeStyle=orthogonalEdgeStyle;rounded=0;html=1;labelBackgroundColor=none;startFill=1;startSize=4;endArrow=blockThin;endFill=1;endSize=4;jettySize=auto;orthogonalLoop=1;strokeColor=#4284F3;strokeWidth=2;fontSize=12;fontColor=#000000;align=center;dashed=0;" parent="1" target="705" edge="1">
          <mxGeometry relative="1" as="geometry">
            <Array as="points">
              <mxPoint x="830" y="562" />
              <mxPoint x="830" y="602" />
            </Array>
            <mxPoint x="855" y="562" as="sourcePoint" />
          </mxGeometry>
        </mxCell>
        <mxCell id="718" style="edgeStyle=orthogonalEdgeStyle;rounded=0;html=1;labelBackgroundColor=none;startFill=1;startSize=4;endArrow=blockThin;endFill=1;endSize=4;jettySize=auto;orthogonalLoop=1;strokeColor=#4284F3;strokeWidth=2;fontSize=12;fontColor=#000000;align=center;dashed=0;" parent="1" source="701" target="703" edge="1">
          <mxGeometry relative="1" as="geometry" />
        </mxCell>
        <mxCell id="701" value="" style="strokeColor=#dddddd;fillColor=#ffffff;shadow=1;strokeWidth=1;rounded=1;absoluteArcSize=1;arcSize=2;fontSize=10;fontColor=#9E9E9E;align=center;html=1;" parent="1" vertex="1">
          <mxGeometry x="855" y="752" width="150" height="60" as="geometry" />
        </mxCell>
        <mxCell id="702" value="&lt;font color=&quot;#000000&quot;&gt;Reference Table&lt;/font&gt;&lt;br&gt;BigQuery" style="dashed=0;connectable=0;html=1;fillColor=#5184F3;strokeColor=none;shape=mxgraph.gcp2.hexIcon;prIcon=bigquery;part=1;labelPosition=right;verticalLabelPosition=middle;align=left;verticalAlign=middle;spacingLeft=5;fontColor=#999999;fontSize=12;" parent="701" vertex="1">
          <mxGeometry y="0.5" width="44" height="39" relative="1" as="geometry">
            <mxPoint x="5" y="-19.5" as="offset" />
          </mxGeometry>
        </mxCell>
        <mxCell id="716" style="edgeStyle=orthogonalEdgeStyle;rounded=0;html=1;labelBackgroundColor=none;startFill=1;startSize=4;endArrow=blockThin;endFill=1;endSize=4;jettySize=auto;orthogonalLoop=1;strokeColor=#4284F3;strokeWidth=2;fontSize=12;fontColor=#000000;align=center;dashed=0;" parent="1" source="703" edge="1">
          <mxGeometry relative="1" as="geometry">
            <Array as="points">
              <mxPoint x="1040" y="682" />
              <mxPoint x="1040" y="562" />
            </Array>
            <mxPoint x="1005" y="562" as="targetPoint" />
          </mxGeometry>
        </mxCell>
        <mxCell id="717" style="edgeStyle=orthogonalEdgeStyle;rounded=0;html=1;labelBackgroundColor=none;startFill=1;startSize=4;endArrow=blockThin;endFill=1;endSize=4;jettySize=auto;orthogonalLoop=1;strokeColor=#4284F3;strokeWidth=2;fontSize=12;fontColor=#000000;align=center;dashed=0;" parent="1" source="703" target="701" edge="1">
          <mxGeometry relative="1" as="geometry">
            <Array as="points">
              <mxPoint x="1040" y="682" />
              <mxPoint x="1040" y="782" />
            </Array>
          </mxGeometry>
        </mxCell>
        <mxCell id="703" value="" style="strokeColor=#dddddd;fillColor=#ffffff;shadow=1;strokeWidth=1;rounded=1;absoluteArcSize=1;arcSize=2;fontSize=10;fontColor=#9E9E9E;align=center;html=1;" parent="1" vertex="1">
          <mxGeometry x="855" y="652" width="150" height="60" as="geometry" />
        </mxCell>
        <mxCell id="704" value="&lt;font color=&quot;#000000&quot;&gt;Id matching&lt;/font&gt;&lt;br&gt;Cloud Dataflow" style="dashed=0;connectable=0;html=1;fillColor=#5184F3;strokeColor=none;shape=mxgraph.gcp2.hexIcon;prIcon=cloud_dataflow;part=1;labelPosition=right;verticalLabelPosition=middle;align=left;verticalAlign=middle;spacingLeft=5;fontColor=#999999;fontSize=12;" parent="703" vertex="1">
          <mxGeometry y="0.5" width="44" height="39" relative="1" as="geometry">
            <mxPoint x="5" y="-19.5" as="offset" />
          </mxGeometry>
        </mxCell>
        <mxCell id="wyFLx1ODkE6jC5D1gI6m-723" value="&lt;b&gt;Karuvigal&lt;/b&gt;" style="fillColor=#F6F6F6;strokeColor=none;shadow=0;gradientColor=none;fontSize=14;align=left;spacing=10;fontColor=#717171;9E9E9E;verticalAlign=top;spacingTop=-4;fontStyle=0;spacingLeft=40;html=1;" vertex="1" parent="1">
          <mxGeometry x="210" y="15" width="270" height="115" as="geometry" />
        </mxCell>
        <mxCell id="wyFLx1ODkE6jC5D1gI6m-724" value="" style="shape=mxgraph.gcp2.google_cloud_platform;fillColor=#F6F6F6;strokeColor=none;shadow=0;gradientColor=none;" vertex="1" parent="wyFLx1ODkE6jC5D1gI6m-723">
          <mxGeometry width="23" height="20" relative="1" as="geometry">
            <mxPoint x="20" y="10" as="offset" />
          </mxGeometry>
        </mxCell>
        <mxCell id="wyFLx1ODkE6jC5D1gI6m-721" value="Build Tools" style="strokeColor=#dddddd;fillColor=#ffffff;shadow=1;strokeWidth=1;rounded=1;absoluteArcSize=1;arcSize=2;fontSize=10;fontColor=#9E9E9E;align=center;html=1;" vertex="1" parent="wyFLx1ODkE6jC5D1gI6m-723">
          <mxGeometry x="14.59" y="43.14" width="95.41" height="23.86" as="geometry" />
        </mxCell>
        <mxCell id="wyFLx1ODkE6jC5D1gI6m-719" value="UI Templates" style="strokeColor=#dddddd;fillColor=#ffffff;shadow=1;strokeWidth=1;rounded=1;absoluteArcSize=1;arcSize=2;fontSize=10;fontColor=#9E9E9E;align=center;html=1;" vertex="1" parent="wyFLx1ODkE6jC5D1gI6m-723">
          <mxGeometry x="150" y="43.14" width="107.14" height="23.86" as="geometry" />
        </mxCell>
        <mxCell id="wyFLx1ODkE6jC5D1gI6m-726" value="Data Integrator" style="strokeColor=#dddddd;fillColor=#ffffff;shadow=1;strokeWidth=1;rounded=1;absoluteArcSize=1;arcSize=2;fontSize=10;fontColor=#9E9E9E;align=center;html=1;" vertex="1" parent="wyFLx1ODkE6jC5D1gI6m-723">
          <mxGeometry x="14.59" y="78" width="245.41" height="23.86" as="geometry" />
        </mxCell>
        <mxCell id="wyFLx1ODkE6jC5D1gI6m-727" value="&lt;b&gt;LUMP(i2m)&lt;/b&gt;" style="fillColor=#F6F6F6;strokeColor=none;shadow=0;gradientColor=none;fontSize=14;align=left;spacing=10;fontColor=#717171;9E9E9E;verticalAlign=top;spacingTop=-4;fontStyle=0;spacingLeft=40;html=1;" vertex="1" parent="1">
          <mxGeometry x="210" y="150" width="290" height="190" as="geometry" />
        </mxCell>
        <mxCell id="wyFLx1ODkE6jC5D1gI6m-728" value="" style="shape=mxgraph.gcp2.google_cloud_platform;fillColor=#F6F6F6;strokeColor=none;shadow=0;gradientColor=none;" vertex="1" parent="wyFLx1ODkE6jC5D1gI6m-727">
          <mxGeometry width="23" height="20" relative="1" as="geometry">
            <mxPoint x="20" y="10" as="offset" />
          </mxGeometry>
        </mxCell>
        <mxCell id="wyFLx1ODkE6jC5D1gI6m-774" value="&lt;div&gt;&lt;b&gt;Funnel&lt;/b&gt;&lt;font style=&quot;font-size: 10px&quot;&gt;(Mautic)&lt;/font&gt;&lt;/div&gt;" style="fillColor=#FFFAE3;strokeColor=none;shadow=0;gradientColor=none;fontSize=14;align=right;spacing=10;fontColor=#717171;9E9E9E;verticalAlign=top;spacingTop=-4;fontStyle=0;spacingLeft=40;html=1;" vertex="1" parent="wyFLx1ODkE6jC5D1gI6m-727">
          <mxGeometry x="160" y="10" width="120" height="150" as="geometry" />
        </mxCell>
        <mxCell id="wyFLx1ODkE6jC5D1gI6m-775" value="Campaigns" style="strokeColor=#dddddd;fillColor=#ffffff;shadow=1;strokeWidth=1;rounded=1;absoluteArcSize=1;arcSize=2;fontSize=10;fontColor=#9E9E9E;align=center;html=1;" vertex="1" parent="wyFLx1ODkE6jC5D1gI6m-774">
          <mxGeometry x="12.300000000000011" y="37.499999999999986" width="95.41" height="29.824999999999992" as="geometry" />
        </mxCell>
        <mxCell id="wyFLx1ODkE6jC5D1gI6m-776" value="Analytics" style="strokeColor=#dddddd;fillColor=#ffffff;shadow=1;strokeWidth=1;rounded=1;absoluteArcSize=1;arcSize=2;fontSize=10;fontColor=#9E9E9E;align=center;html=1;" vertex="1" parent="wyFLx1ODkE6jC5D1gI6m-774">
          <mxGeometry x="12.300000000000011" y="77.68214285714286" width="95.41" height="29.824999999999992" as="geometry" />
        </mxCell>
        <mxCell id="wyFLx1ODkE6jC5D1gI6m-777" value="Marketing List" style="strokeColor=#dddddd;fillColor=#ffffff;shadow=1;strokeWidth=1;rounded=1;absoluteArcSize=1;arcSize=2;fontSize=10;fontColor=#9E9E9E;align=center;html=1;" vertex="1" parent="wyFLx1ODkE6jC5D1gI6m-774">
          <mxGeometry x="12.3" y="114.18" width="97.7" height="25.83" as="geometry" />
        </mxCell>
        <mxCell id="wyFLx1ODkE6jC5D1gI6m-737" value="&lt;b&gt;LENSCribe(m20)&lt;/b&gt;" style="fillColor=#F6F6F6;strokeColor=none;shadow=0;gradientColor=none;fontSize=14;align=left;spacing=10;fontColor=#717171;9E9E9E;verticalAlign=top;spacingTop=-4;fontStyle=0;spacingLeft=40;html=1;" vertex="1" parent="1">
          <mxGeometry x="810" y="150" width="270" height="115" as="geometry" />
        </mxCell>
        <mxCell id="wyFLx1ODkE6jC5D1gI6m-738" value="" style="shape=mxgraph.gcp2.google_cloud_platform;fillColor=#F6F6F6;strokeColor=none;shadow=0;gradientColor=none;" vertex="1" parent="wyFLx1ODkE6jC5D1gI6m-737">
          <mxGeometry width="23" height="20" relative="1" as="geometry">
            <mxPoint x="20" y="10" as="offset" />
          </mxGeometry>
        </mxCell>
        <mxCell id="wyFLx1ODkE6jC5D1gI6m-739" value="Build Tools" style="strokeColor=#dddddd;fillColor=#ffffff;shadow=1;strokeWidth=1;rounded=1;absoluteArcSize=1;arcSize=2;fontSize=10;fontColor=#9E9E9E;align=center;html=1;" vertex="1" parent="wyFLx1ODkE6jC5D1gI6m-737">
          <mxGeometry x="14.59" y="43.14" width="95.41" height="23.86" as="geometry" />
        </mxCell>
        <mxCell id="wyFLx1ODkE6jC5D1gI6m-740" value="UI Templates" style="strokeColor=#dddddd;fillColor=#ffffff;shadow=1;strokeWidth=1;rounded=1;absoluteArcSize=1;arcSize=2;fontSize=10;fontColor=#9E9E9E;align=center;html=1;" vertex="1" parent="wyFLx1ODkE6jC5D1gI6m-737">
          <mxGeometry x="150" y="43.14" width="107.14" height="23.86" as="geometry" />
        </mxCell>
        <mxCell id="wyFLx1ODkE6jC5D1gI6m-741" value="Data Integrator" style="strokeColor=#dddddd;fillColor=#ffffff;shadow=1;strokeWidth=1;rounded=1;absoluteArcSize=1;arcSize=2;fontSize=10;fontColor=#9E9E9E;align=center;html=1;" vertex="1" parent="wyFLx1ODkE6jC5D1gI6m-737">
          <mxGeometry x="14.59" y="78" width="245.41" height="23.86" as="geometry" />
        </mxCell>
        <mxCell id="wyFLx1ODkE6jC5D1gI6m-768" value="&lt;b&gt;CMS&lt;/b&gt;&lt;font style=&quot;font-size: 10px&quot;&gt;(Strapi)&lt;/font&gt;" style="fillColor=#B5B0FF;strokeColor=none;shadow=0;gradientColor=none;fontSize=14;align=left;spacing=10;fontColor=#717171;9E9E9E;verticalAlign=top;spacingTop=-4;fontStyle=0;spacingLeft=40;html=1;" vertex="1" parent="1">
          <mxGeometry x="220" y="190" width="120" height="140" as="geometry" />
        </mxCell>
        <mxCell id="wyFLx1ODkE6jC5D1gI6m-770" value="Blogs" style="strokeColor=#dddddd;fillColor=#ffffff;shadow=1;strokeWidth=1;rounded=1;absoluteArcSize=1;arcSize=2;fontSize=10;fontColor=#9E9E9E;align=center;html=1;" vertex="1" parent="wyFLx1ODkE6jC5D1gI6m-768">
          <mxGeometry x="12.300000000000011" y="34.99999999999999" width="95.41" height="27.836666666666666" as="geometry" />
        </mxCell>
        <mxCell id="wyFLx1ODkE6jC5D1gI6m-771" value="Newsletter" style="strokeColor=#dddddd;fillColor=#ffffff;shadow=1;strokeWidth=1;rounded=1;absoluteArcSize=1;arcSize=2;fontSize=10;fontColor=#9E9E9E;align=center;html=1;" vertex="1" parent="wyFLx1ODkE6jC5D1gI6m-768">
          <mxGeometry x="12.300000000000011" y="72.50333333333336" width="95.41" height="27.836666666666666" as="geometry" />
        </mxCell>
        <mxCell id="wyFLx1ODkE6jC5D1gI6m-772" value="Social Posts" style="strokeColor=#dddddd;fillColor=#ffffff;shadow=1;strokeWidth=1;rounded=1;absoluteArcSize=1;arcSize=2;fontSize=10;fontColor=#9E9E9E;align=center;html=1;" vertex="1" parent="1">
          <mxGeometry x="233.3" y="299.86" width="95.41" height="23.86" as="geometry" />
        </mxCell>
        <mxCell id="wyFLx1ODkE6jC5D1gI6m-778" value="&lt;b&gt;LENSComm&lt;/b&gt;" style="fillColor=#F6F6F6;strokeColor=none;shadow=0;gradientColor=none;fontSize=14;align=left;spacing=10;fontColor=#717171;9E9E9E;verticalAlign=top;spacingTop=-4;fontStyle=0;spacingLeft=40;html=1;" vertex="1" parent="1">
          <mxGeometry x="540" y="150" width="290" height="240" as="geometry" />
        </mxCell>
        <mxCell id="wyFLx1ODkE6jC5D1gI6m-779" value="" style="shape=mxgraph.gcp2.google_cloud_platform;fillColor=#F6F6F6;strokeColor=none;shadow=0;gradientColor=none;" vertex="1" parent="wyFLx1ODkE6jC5D1gI6m-778">
          <mxGeometry width="23" height="20" relative="1" as="geometry">
            <mxPoint x="20" y="10" as="offset" />
          </mxGeometry>
        </mxCell>
        <mxCell id="wyFLx1ODkE6jC5D1gI6m-780" value="&lt;div style=&quot;text-align: justify&quot;&gt;&lt;b&gt;StoreFront&lt;/b&gt;&lt;/div&gt;" style="fillColor=#FFFAE3;strokeColor=none;shadow=0;gradientColor=none;fontSize=14;align=right;spacing=10;fontColor=#717171;9E9E9E;verticalAlign=top;spacingTop=-4;fontStyle=0;spacingLeft=40;html=1;" vertex="1" parent="wyFLx1ODkE6jC5D1gI6m-778">
          <mxGeometry x="160" y="36.85" width="120" height="163.15" as="geometry" />
        </mxCell>
        <mxCell id="wyFLx1ODkE6jC5D1gI6m-781" value="MyAccount" style="strokeColor=#dddddd;fillColor=#ffffff;shadow=1;strokeWidth=1;rounded=1;absoluteArcSize=1;arcSize=2;fontSize=10;fontColor=#9E9E9E;align=center;html=1;" vertex="1" parent="wyFLx1ODkE6jC5D1gI6m-780">
          <mxGeometry x="12.300000000000011" y="40.787499999999994" width="95.41" height="32.43965833333333" as="geometry" />
        </mxCell>
        <mxCell id="wyFLx1ODkE6jC5D1gI6m-782" value="Shop" style="strokeColor=#dddddd;fillColor=#ffffff;shadow=1;strokeWidth=1;rounded=1;absoluteArcSize=1;arcSize=2;fontSize=10;fontColor=#9E9E9E;align=center;html=1;" vertex="1" parent="wyFLx1ODkE6jC5D1gI6m-780">
          <mxGeometry x="12.300000000000011" y="84.4922773809524" width="95.41" height="32.43965833333333" as="geometry" />
        </mxCell>
        <mxCell id="wyFLx1ODkE6jC5D1gI6m-783" value="Tracking" style="strokeColor=#dddddd;fillColor=#ffffff;shadow=1;strokeWidth=1;rounded=1;absoluteArcSize=1;arcSize=2;fontSize=10;fontColor=#9E9E9E;align=center;html=1;" vertex="1" parent="wyFLx1ODkE6jC5D1gI6m-780">
          <mxGeometry x="12.300000000000011" y="130.71034166666666" width="95.41" height="32.43965833333333" as="geometry" />
        </mxCell>
        <mxCell id="wyFLx1ODkE6jC5D1gI6m-784" value="&lt;div&gt;&lt;b&gt;&lt;font style=&quot;font-size: 12px&quot;&gt;Commerce Engine&lt;/font&gt;&lt;/b&gt;&lt;/div&gt;" style="fillColor=#B5B0FF;strokeColor=none;shadow=0;gradientColor=none;fontSize=14;align=right;spacing=10;fontColor=#717171;9E9E9E;verticalAlign=top;spacingTop=-4;fontStyle=0;spacingLeft=40;html=1;" vertex="1" parent="wyFLx1ODkE6jC5D1gI6m-778">
          <mxGeometry x="15" y="50.53" width="115" height="149.47" as="geometry" />
        </mxCell>
        <mxCell id="wyFLx1ODkE6jC5D1gI6m-785" value="Customer" style="strokeColor=#dddddd;fillColor=#ffffff;shadow=1;strokeWidth=1;rounded=1;absoluteArcSize=1;arcSize=2;fontSize=10;fontColor=#9E9E9E;align=center;html=1;" vertex="1" parent="wyFLx1ODkE6jC5D1gI6m-784">
          <mxGeometry x="11.787500000000001" y="37.36705514880952" width="93.62916666666668" height="13.345980565476188" as="geometry" />
        </mxCell>
        <mxCell id="wyFLx1ODkE6jC5D1gI6m-786" value="Products" style="strokeColor=#dddddd;fillColor=#ffffff;shadow=1;strokeWidth=1;rounded=1;absoluteArcSize=1;arcSize=2;fontSize=10;fontColor=#9E9E9E;align=center;html=1;" vertex="1" parent="wyFLx1ODkE6jC5D1gI6m-784">
          <mxGeometry x="11.787500000000001" y="58.717243184523795" width="93.62916666666668" height="15.568901964285713" as="geometry" />
        </mxCell>
        <mxCell id="wyFLx1ODkE6jC5D1gI6m-787" value="Orders" style="strokeColor=#dddddd;fillColor=#ffffff;shadow=1;strokeWidth=1;rounded=1;absoluteArcSize=1;arcSize=2;fontSize=10;fontColor=#9E9E9E;align=center;html=1;" vertex="1" parent="wyFLx1ODkE6jC5D1gI6m-784">
          <mxGeometry x="11.787500000000001" y="84.07376104166666" width="93.62916666666668" height="17.35231038690476" as="geometry" />
        </mxCell>
        <mxCell id="wyFLx1ODkE6jC5D1gI6m-788" value="Marketing" style="strokeColor=#dddddd;fillColor=#ffffff;shadow=1;strokeWidth=1;rounded=1;absoluteArcSize=1;arcSize=2;fontSize=10;fontColor=#9E9E9E;align=center;html=1;" vertex="1" parent="wyFLx1ODkE6jC5D1gI6m-784">
          <mxGeometry x="11.787499999999957" y="109.43027889880948" width="93.62916666666668" height="17.35231038690476" as="geometry" />
        </mxCell>
        <mxCell id="wyFLx1ODkE6jC5D1gI6m-790" style="edgeStyle=orthogonalEdgeStyle;rounded=0;orthogonalLoop=1;jettySize=auto;html=1;fontSize=12;entryX=0;entryY=0.75;entryDx=0;entryDy=0;exitX=0.5;exitY=1;exitDx=0;exitDy=0;" edge="1" parent="1" source="wyFLx1ODkE6jC5D1gI6m-727" target="wyFLx1ODkE6jC5D1gI6m-788">
          <mxGeometry relative="1" as="geometry" />
        </mxCell>
      </root>
    </mxGraphModel>
  </diagram>
</mxfile>
